#!OML:ASF H:\ManfredETheater\Project 1\Capture day 1\Session 1\subject.ASF
:FULLY-SPECIFIED
:DEGREES
112
root 3.47003 15.0782 -2.9869 -135.749 27.7083 -177.98
lowerback 33.2656 -2.75721 4.38845
upperback 9.10769 0.39977 5.22393
thorax -7.03975 0.830616 2.93729
lowerneck -6.38391 -0.668632 0.739278
upperneck -23.4342 -0.0888636 -4.59736
head -6.07102 1.11319 -1.69714
rclavicle 5.1684e-015 1.64445e-013
rhumerus -37.5788 31.8352 -88.6433
rradius 37.4551
rwrist 19.1774
rhand -22.3084 -6.46183
rfingers 7.12502
rthumb 4.11098 -36.4019
lclavicle 5.1684e-015 1.64445e-013
lhumerus -27.2655 -12.7645 88.5969
lradius 35.8025
lwrist -7.56303
lhand -13.0677 3.89748
lfingers 7.12502
lthumb 13.0279 33.4707
rfemur -90.2201 -7.7763 30.7181
rtibia 75.0806
rfoot -16.2986 -19.3222
rtoes -31.63
lfemur -36.6139 -3.6078 -23.3717
ltibia 97.7161
lfoot 13.2924 -12.4528
ltoes 2.53767
113
root 3.66447 15.1114 -3.46332 -135.288 27.0468 -177.383
lowerback 32.5102 -2.65891 4.48511
upperback 8.7179 0.413538 5.23805
thorax -7.17481 0.802474 2.89221
lowerneck -6.67667 -0.670376 0.678871
upperneck -23.9512 0.023344 -4.48548
head -6.18918 1.22374 -1.66751
rclavicle -4.11484e-014 -7.688e-014
rhumerus -38.9815 29.7059 -89.1222
rradius 36.7971
rwrist 20.1905
rhand -22.0597 -6.36275
rfingers 7.12502
rthumb 4.35115 -36.2981
lclavicle -4.11484e-014 -7.688e-014
lhumerus -29.5407 -11.5087 88.2288
lradius 36.7493
lwrist -8.30845
lhand -12.9502 3.99509
lfingers 7.12502
lthumb 13.1412 33.561
rfemur -88.1887 -7.96326 30.862
rtibia 75.5333
rfoot -17.7431 -20.6427
rtoes -32.9701
lfemur -40.0905 -2.22462 -22.6637
ltibia 101.668
lfoot 10.9331 -12.0858
ltoes 0.496666
114
root 3.86368 15.1615 -3.9424 -134.915 26.4305 -176.76
lowerback 31.5993 -2.50939 4.44206
upperback 8.75209 0.443265 5.12248
thorax -7.40771 0.814118 2.97529
lowerneck -6.93962 -0.676861 0.657642
upperneck -24.4542 0.140105 -4.317
head -6.30901 1.3284 -1.62634
rclavicle 3.12092e-014 4.06515e-014
rhumerus -40.114 27.1219 -89.2495
rradius 36.1606
rwrist 21.0512
rhand -21.8586 -6.32208
rfingers 7.12502
rthumb 4.54529 -36.2533
lclavicle 3.12092e-014 4.06515e-014
lhumerus -31.7138 -10.4982 87.7943
lradius 37.7618
lwrist -7.95298
lhand -13.3432 4.4348
lfingers 7.12502
lthumb 12.7623 34.0247
rfemur -85.8024 -8.08983 30.9657
rtibia 75.5345
rfoot -18.8278 -21.771
rtoes -34.3222
lfemur -43.5901 -0.745901 -22.0692
ltibia 104.982
lfoot 8.52178 -11.2923
ltoes -1.61341
115
root 4.06395 15.227 -4.42561 -134.659 25.7961 -176.081
lowerback 31.1407 -2.40557 4.51495
upperback 8.43955 0.495432 5.0517
thorax -7.55145 0.812618 2.83042
lowerneck -7.15781 -0.687299 0.664666
upperneck -24.9453 0.261693 -4.09182
head -6.43358 1.42755 -1.57168
rclavicle 7.33515e-014 6.95746e-015
rhumerus -41.1075 24.217 -89.0849
rradius 35.6736
rwrist 21.5136
rhand -21.6751 -6.42255
rfingers 7.12502
rthumb 4.72248 -36.3499
lclavicle 7.33515e-014 6.95746e-015
lhumerus -33.7691 -9.72137 87.3333
lradius 38.8333
lwrist -6.60355
lhand -14.2815 5.1145
lfingers 7.12502
lthumb 11.8576 34.7588
rfemur -83.0867 -8.19273 31.0888
rtibia 75.2244
rfoot -19.5865 -22.7327
rtoes -35.6266
lfemur -47.047 0.737533 -21.5395
ltibia 107.692
lfoot 6.11011 -10.196
ltoes -3.85552
116
root 4.26889 15.3651 -4.93682 -134.543 25.0978 -175.342
lowerback 30.8275 -2.34714 4.70194
upperback 8.18378 0.551473 4.96124
thorax -7.69547 0.81849 2.59816
lowerneck -7.30696 -0.70328 0.681042
upperneck -25.432 0.384082 -3.81419
head -6.56946 1.52061 -1.50171
rclavicle -3.10104e-014 1.41386e-014
rhumerus -42.067 21.1761 -88.7039
rradius 35.3878
rwrist 21.3995
rhand -21.5163 -6.65568
rfingers 7.12502
rthumb 4.87588 -36.5796
lclavicle -3.10104e-014 1.41386e-014
lhumerus -35.6921 -9.09033 86.864
lradius 39.959
lwrist -4.57251
lhand -15.5101 5.9289
lfingers 7.12502
lthumb 10.6728 35.6378
rfemur -79.6833 -8.35541 31.2567
rtibia 74.3597
rfoot -20.1335 -23.4811
rtoes -36.9032
lfemur -50.2637 2.14034 -21.0373
ltibia 109.436
lfoot 3.94793 -9.00651
ltoes -6.22545
117
root 4.46145 15.4486 -5.43 -134.566 24.3477 -174.536
lowerback 30.6483 -2.33239 5.00986
upperback 7.98056 0.613022 4.85527
thorax -7.84018 0.831407 2.2784
lowerneck -7.37765 -0.724707 0.702232
upperneck -25.8994 0.504413 -3.48737
head -6.71334 1.60454 -1.41611
rclavicle 9.83736e-014 4.88886e-014
rhumerus -43.0627 18.1885 -88.2065
rradius 35.3214
rwrist 20.636
rhand -21.3608 -7.01628
rfingers 7.12502
rthumb 5.02596 -36.9367
lclavicle 9.83736e-014 4.88886e-014
lhumerus -37.4875 -8.52122 86.3832
lradius 41.1234
lwrist -2.2575
lhand -16.884 6.72119
lfingers 7.12502
lthumb 9.34728 36.4939
rfemur -76.4269 -8.48392 31.4775
rtibia 73.5552
rfoot -20.2105 -24.0172
rtoes -38.1422
lfemur -53.5345 3.3892 -20.5847
ltibia 110.952
lfoot 1.65323 -7.66904
ltoes -8.85287
118
root 4.64874 15.5388 -5.92863 -134.722 23.5639 -173.705
lowerback 30.5542 -2.345 5.38703
upperback 7.82772 0.680879 4.75333
thorax -7.96592 0.851408 1.92193
lowerneck -7.37437 -0.755922 0.705684
upperneck -26.3297 0.612383 -3.124
head -6.85861 1.67542 -1.31417
rclavicle -4.47266e-016 -1.85491e-014
rhumerus -44.1157 15.4367 -87.653
rradius 35.4702
rwrist 19.2533
rhand -21.2132 -7.46026
rfingers 7.12502
rthumb 5.16846 -37.3772
lclavicle -4.47266e-016 -1.85491e-014
lhumerus -39.1491 -7.92553 85.8978
lradius 42.3171
lwrist -0.0599736
lhand -18.1178 7.43864
lfingers 7.12502
lthumb 8.15665 37.2612
rfemur -72.9689 -8.64414 31.7124
rtibia 72.5432
rfoot -19.9387 -24.3062
rtoes -39.3205
lfemur -56.7195 4.41481 -20.1905
ltibia 111.883
lfoot -0.512738 -6.38137
ltoes -11.5134
119
root 4.83087 15.6333 -6.43387 -135.01 22.7816 -172.899
lowerback 30.501 -2.37675 5.78143
upperback 7.72212 0.742174 4.65294
thorax -8.05564 0.87216 1.55986
lowerneck -7.31088 -0.795091 0.67876
upperneck -26.6909 0.705916 -2.72919
head -6.99205 1.731 -1.19421
rclavicle -3.56818e-014 -5.19076e-014
rhumerus -45.1883 13.0024 -87.08
rradius 35.7544
rwrist 17.4563
rhand -21.0917 -7.86916
rfingers 7.12502
rthumb 5.28578 -37.7832
lclavicle -3.56818e-014 -5.19076e-014
lhumerus -40.6857 -7.26966 85.4149
lradius 43.5173
lwrist 1.75511
lhand -19.0907 7.98023
lfingers 7.12502
lthumb 7.21765 37.8371
rfemur -69.3834 -8.85063 31.8986
rtibia 71.4565
rfoot -19.4146 -24.3553
rtoes -40.4658
lfemur -59.7671 5.16549 -19.9074
ltibia 112.25
lfoot -2.59358 -5.17643
ltoes -14.3513
